<svg width="23" height="23" viewBox="0 0 23 23" fill="none" xmlns="http://www.w3.org/2000/svg">
<path d="M1.23744 18.5616C0.554019 19.2451 0.554019 20.3531 1.23744 21.0365V21.0365C1.92085 21.7199 3.02889 21.7199 3.71231 21.0365L21.0364 3.71239C21.7198 3.02897 21.7198 1.92094 21.0364 1.23752V1.23752C20.353 0.554101 19.245 0.554101 18.5616 1.23752L1.23744 18.5616Z" fill="#0F3235"/>
<path d="M3.71229 1.23744C3.02887 0.554019 1.92083 0.554019 1.23742 1.23744V1.23744C0.553999 1.92085 0.553999 3.02889 1.23742 3.71231L18.5615 21.0364C19.2449 21.7198 20.353 21.7198 21.0364 21.0364V21.0364C21.7198 20.353 21.7198 19.245 21.0364 18.5616L3.71229 1.23744Z" fill="#0F3235"/>
</svg>
