<svg width="28" height="22" viewBox="0 0 28 22" fill="none" xmlns="http://www.w3.org/2000/svg">
<path d="M0 20.1667C0 21.1792 0.820811 22 1.83333 22H12.6042C13.6167 22 14.4375 21.1792 14.4375 20.1667C14.4375 19.1541 13.6167 18.3333 12.6042 18.3333H1.83333C0.820811 18.3333 0 19.1541 0 20.1667ZM0 11C0 12.0125 0.820811 12.8333 1.83333 12.8333H19.1667C20.1792 12.8333 21 12.0125 21 11C21 9.98748 20.1792 9.16667 19.1667 9.16667H1.83333C0.820811 9.16667 0 9.98748 0 11ZM1.83333 0C0.82081 0 0 0.820811 0 1.83333C0 2.84585 0.820811 3.66667 1.83333 3.66667H26.1667C27.1792 3.66667 28 2.84585 28 1.83333C28 0.820811 27.1792 0 26.1667 0H1.83333Z" fill="#0F3235"/>
</svg>
